<mxfile host="Electron" modified="2023-05-24T14:06:36.816Z" agent="Mozilla/5.0 (Windows NT 10.0; Win64; x64) AppleWebKit/537.36 (KHTML, like Gecko) draw.io/21.2.1 Chrome/112.0.5615.87 Electron/24.1.2 Safari/537.36" etag="YNCz8GKj9KryXl6XoIGc" version="21.2.1" type="device">
  <diagram name="Page-1" id="_0eS75nT1C1AOaZOZIGC">
    <mxGraphModel dx="2529" dy="870" grid="1" gridSize="10" guides="1" tooltips="1" connect="1" arrows="1" fold="1" page="1" pageScale="1" pageWidth="850" pageHeight="1100" math="0" shadow="0">
      <root>
        <mxCell id="0" />
        <mxCell id="1" parent="0" />
        <mxCell id="P5B2Entr7xozEBkngnMB-3" value="" style="shape=umlLifeline;perimeter=lifelinePerimeter;whiteSpace=wrap;html=1;container=1;dropTarget=0;collapsible=0;recursiveResize=0;outlineConnect=0;portConstraint=eastwest;newEdgeStyle={&quot;edgeStyle&quot;:&quot;elbowEdgeStyle&quot;,&quot;elbow&quot;:&quot;vertical&quot;,&quot;curved&quot;:0,&quot;rounded&quot;:0};participant=umlBoundary;" vertex="1" parent="1">
          <mxGeometry x="732.19" y="265" width="50" height="615" as="geometry" />
        </mxCell>
        <mxCell id="P5B2Entr7xozEBkngnMB-6" value="" style="shape=umlLifeline;perimeter=lifelinePerimeter;whiteSpace=wrap;html=1;container=1;dropTarget=0;collapsible=0;recursiveResize=0;outlineConnect=0;portConstraint=eastwest;newEdgeStyle={&quot;edgeStyle&quot;:&quot;elbowEdgeStyle&quot;,&quot;elbow&quot;:&quot;vertical&quot;,&quot;curved&quot;:0,&quot;rounded&quot;:0};participant=umlBoundary;" vertex="1" parent="1">
          <mxGeometry x="120" y="260" width="50" height="620" as="geometry" />
        </mxCell>
        <mxCell id="P5B2Entr7xozEBkngnMB-8" value="" style="shape=umlLifeline;perimeter=lifelinePerimeter;whiteSpace=wrap;html=1;container=1;dropTarget=0;collapsible=0;recursiveResize=0;outlineConnect=0;portConstraint=eastwest;newEdgeStyle={&quot;edgeStyle&quot;:&quot;elbowEdgeStyle&quot;,&quot;elbow&quot;:&quot;vertical&quot;,&quot;curved&quot;:0,&quot;rounded&quot;:0};participant=umlBoundary;" vertex="1" parent="1">
          <mxGeometry x="552" y="265" width="50" height="615" as="geometry" />
        </mxCell>
        <mxCell id="P5B2Entr7xozEBkngnMB-10" value="" style="shape=umlLifeline;perimeter=lifelinePerimeter;whiteSpace=wrap;html=1;container=1;dropTarget=0;collapsible=0;recursiveResize=0;outlineConnect=0;portConstraint=eastwest;newEdgeStyle={&quot;edgeStyle&quot;:&quot;elbowEdgeStyle&quot;,&quot;elbow&quot;:&quot;vertical&quot;,&quot;curved&quot;:0,&quot;rounded&quot;:0};participant=umlEntity;" vertex="1" parent="1">
          <mxGeometry x="280" y="260" width="40" height="620" as="geometry" />
        </mxCell>
        <mxCell id="P5B2Entr7xozEBkngnMB-12" value="" style="shape=umlLifeline;perimeter=lifelinePerimeter;whiteSpace=wrap;html=1;container=1;dropTarget=0;collapsible=0;recursiveResize=0;outlineConnect=0;portConstraint=eastwest;newEdgeStyle={&quot;edgeStyle&quot;:&quot;elbowEdgeStyle&quot;,&quot;elbow&quot;:&quot;vertical&quot;,&quot;curved&quot;:0,&quot;rounded&quot;:0};participant=umlActor;" vertex="1" parent="1">
          <mxGeometry x="10" y="260" width="20" height="620" as="geometry" />
        </mxCell>
        <mxCell id="P5B2Entr7xozEBkngnMB-14" value="Σελ&amp;nbsp;&lt;br&gt;κείμενα χρηστών" style="text;html=1;align=center;verticalAlign=middle;resizable=0;points=[];autosize=1;strokeColor=none;fillColor=none;" vertex="1" parent="1">
          <mxGeometry x="90" y="210" width="110" height="40" as="geometry" />
        </mxCell>
        <mxCell id="P5B2Entr7xozEBkngnMB-15" value="Server" style="text;html=1;align=center;verticalAlign=middle;resizable=0;points=[];autosize=1;strokeColor=none;fillColor=none;" vertex="1" parent="1">
          <mxGeometry x="270" y="225" width="60" height="30" as="geometry" />
        </mxCell>
        <mxCell id="P5B2Entr7xozEBkngnMB-16" value="Σελίδα Επιλεγμένο κείμενο" style="text;html=1;align=center;verticalAlign=middle;resizable=0;points=[];autosize=1;strokeColor=none;fillColor=none;" vertex="1" parent="1">
          <mxGeometry x="497" y="225" width="170" height="30" as="geometry" />
        </mxCell>
        <mxCell id="P5B2Entr7xozEBkngnMB-17" value="Σελίδα Συγγραφή σχολίου" style="text;html=1;align=center;verticalAlign=middle;resizable=0;points=[];autosize=1;strokeColor=none;fillColor=none;" vertex="1" parent="1">
          <mxGeometry x="677" y="230" width="160" height="30" as="geometry" />
        </mxCell>
        <mxCell id="P5B2Entr7xozEBkngnMB-19" value=":Object" style="shape=umlLifeline;perimeter=lifelinePerimeter;whiteSpace=wrap;html=1;container=1;collapsible=0;recursiveResize=0;outlineConnect=0;" vertex="1" parent="1">
          <mxGeometry x="-170" y="550" width="100" height="50" as="geometry" />
        </mxCell>
        <mxCell id="P5B2Entr7xozEBkngnMB-20" value=":Object" style="shape=umlLifeline;perimeter=lifelinePerimeter;whiteSpace=wrap;html=1;container=1;collapsible=0;recursiveResize=0;outlineConnect=0;" vertex="1" parent="1">
          <mxGeometry x="-170" y="620" width="100" height="50" as="geometry" />
        </mxCell>
        <mxCell id="P5B2Entr7xozEBkngnMB-21" value=":Object" style="shape=umlLifeline;perimeter=lifelinePerimeter;whiteSpace=wrap;html=1;container=1;collapsible=0;recursiveResize=0;outlineConnect=0;" vertex="1" parent="1">
          <mxGeometry x="-170" y="700" width="100" height="50" as="geometry" />
        </mxCell>
        <mxCell id="P5B2Entr7xozEBkngnMB-22" value=":Object" style="shape=umlLifeline;perimeter=lifelinePerimeter;whiteSpace=wrap;html=1;container=1;collapsible=0;recursiveResize=0;outlineConnect=0;" vertex="1" parent="1">
          <mxGeometry x="-170" y="330" width="100" height="50" as="geometry" />
        </mxCell>
        <mxCell id="P5B2Entr7xozEBkngnMB-23" value=":Object" style="shape=umlLifeline;perimeter=lifelinePerimeter;whiteSpace=wrap;html=1;container=1;collapsible=0;recursiveResize=0;outlineConnect=0;" vertex="1" parent="1">
          <mxGeometry x="-170" y="410" width="100" height="50" as="geometry" />
        </mxCell>
        <mxCell id="P5B2Entr7xozEBkngnMB-24" value=":Object" style="shape=umlLifeline;perimeter=lifelinePerimeter;whiteSpace=wrap;html=1;container=1;collapsible=0;recursiveResize=0;outlineConnect=0;" vertex="1" parent="1">
          <mxGeometry x="-170" y="480" width="100" height="50" as="geometry" />
        </mxCell>
        <mxCell id="P5B2Entr7xozEBkngnMB-26" value="Χρήστης" style="text;html=1;align=center;verticalAlign=middle;resizable=0;points=[];autosize=1;strokeColor=none;fillColor=none;" vertex="1" parent="1">
          <mxGeometry x="-10" y="220" width="70" height="30" as="geometry" />
        </mxCell>
        <mxCell id="P5B2Entr7xozEBkngnMB-86" value="" style="endArrow=classic;html=1;rounded=0;entryX=0.1;entryY=0.018;entryDx=0;entryDy=0;entryPerimeter=0;" edge="1" parent="1" target="P5B2Entr7xozEBkngnMB-114">
          <mxGeometry width="50" height="50" relative="1" as="geometry">
            <mxPoint x="144.5" y="347" as="sourcePoint" />
            <mxPoint x="299.5" y="347" as="targetPoint" />
            <Array as="points">
              <mxPoint x="170" y="347" />
              <mxPoint x="240" y="347" />
            </Array>
          </mxGeometry>
        </mxCell>
        <mxCell id="P5B2Entr7xozEBkngnMB-87" value="serverInit()" style="text;html=1;align=center;verticalAlign=middle;resizable=0;points=[];autosize=1;strokeColor=none;fillColor=none;" vertex="1" parent="1">
          <mxGeometry x="183" y="320" width="80" height="30" as="geometry" />
        </mxCell>
        <mxCell id="P5B2Entr7xozEBkngnMB-90" value="" style="endArrow=classic;html=1;rounded=0;entryX=-0.1;entryY=0.95;entryDx=0;entryDy=0;entryPerimeter=0;" edge="1" parent="1" target="P5B2Entr7xozEBkngnMB-112">
          <mxGeometry width="50" height="50" relative="1" as="geometry">
            <mxPoint x="19.5" y="473" as="sourcePoint" />
            <mxPoint x="145" y="473" as="targetPoint" />
            <Array as="points">
              <mxPoint x="50.5" y="473" />
              <mxPoint x="120.5" y="473" />
            </Array>
          </mxGeometry>
        </mxCell>
        <mxCell id="P5B2Entr7xozEBkngnMB-91" value="selectPost()" style="text;html=1;align=center;verticalAlign=middle;resizable=0;points=[];autosize=1;strokeColor=none;fillColor=none;" vertex="1" parent="1">
          <mxGeometry x="40" y="437" width="90" height="30" as="geometry" />
        </mxCell>
        <mxCell id="P5B2Entr7xozEBkngnMB-92" value="" style="shape=umlLifeline;perimeter=lifelinePerimeter;whiteSpace=wrap;html=1;container=1;dropTarget=0;collapsible=0;recursiveResize=0;outlineConnect=0;portConstraint=eastwest;newEdgeStyle={&quot;edgeStyle&quot;:&quot;elbowEdgeStyle&quot;,&quot;elbow&quot;:&quot;vertical&quot;,&quot;curved&quot;:0,&quot;rounded&quot;:0};participant=umlEntity;" vertex="1" parent="1">
          <mxGeometry x="415" y="264" width="40" height="616" as="geometry" />
        </mxCell>
        <mxCell id="P5B2Entr7xozEBkngnMB-93" value="λίστα&amp;nbsp;&lt;br&gt;άρθρα" style="text;html=1;align=center;verticalAlign=middle;resizable=0;points=[];autosize=1;strokeColor=none;fillColor=none;" vertex="1" parent="1">
          <mxGeometry x="405" y="220" width="60" height="40" as="geometry" />
        </mxCell>
        <mxCell id="P5B2Entr7xozEBkngnMB-95" value="fetchPostData()" style="text;html=1;align=center;verticalAlign=middle;resizable=0;points=[];autosize=1;strokeColor=none;fillColor=none;" vertex="1" parent="1">
          <mxGeometry x="315" y="354" width="110" height="30" as="geometry" />
        </mxCell>
        <mxCell id="P5B2Entr7xozEBkngnMB-96" value="" style="endArrow=classic;html=1;rounded=0;entryX=0.5;entryY=-0.007;entryDx=0;entryDy=0;entryPerimeter=0;" edge="1" parent="1" target="P5B2Entr7xozEBkngnMB-115">
          <mxGeometry width="50" height="50" relative="1" as="geometry">
            <mxPoint x="299.5" y="384" as="sourcePoint" />
            <mxPoint x="434.5" y="384" as="targetPoint" />
            <Array as="points">
              <mxPoint x="370" y="384" />
            </Array>
          </mxGeometry>
        </mxCell>
        <mxCell id="P5B2Entr7xozEBkngnMB-99" value="showPostData()" style="text;html=1;align=center;verticalAlign=middle;resizable=0;points=[];autosize=1;strokeColor=none;fillColor=none;" vertex="1" parent="1">
          <mxGeometry x="315" y="395" width="110" height="30" as="geometry" />
        </mxCell>
        <mxCell id="P5B2Entr7xozEBkngnMB-101" value="showtPostDetails()" style="text;html=1;align=center;verticalAlign=middle;resizable=0;points=[];autosize=1;strokeColor=none;fillColor=none;" vertex="1" parent="1">
          <mxGeometry x="447" y="484" width="120" height="30" as="geometry" />
        </mxCell>
        <mxCell id="P5B2Entr7xozEBkngnMB-103" value="" style="endArrow=classic;html=1;rounded=0;" edge="1" parent="1" source="P5B2Entr7xozEBkngnMB-12">
          <mxGeometry width="50" height="50" relative="1" as="geometry">
            <mxPoint x="520" y="590" as="sourcePoint" />
            <mxPoint x="570" y="590" as="targetPoint" />
            <Array as="points">
              <mxPoint x="300" y="590" />
            </Array>
          </mxGeometry>
        </mxCell>
        <mxCell id="P5B2Entr7xozEBkngnMB-104" value="reviewPost()" style="text;html=1;align=center;verticalAlign=middle;resizable=0;points=[];autosize=1;strokeColor=none;fillColor=none;" vertex="1" parent="1">
          <mxGeometry x="40" y="560" width="90" height="30" as="geometry" />
        </mxCell>
        <mxCell id="P5B2Entr7xozEBkngnMB-105" value="" style="endArrow=classic;html=1;rounded=0;" edge="1" parent="1" source="P5B2Entr7xozEBkngnMB-8">
          <mxGeometry width="50" height="50" relative="1" as="geometry">
            <mxPoint x="520" y="590" as="sourcePoint" />
            <mxPoint x="310" y="640" as="targetPoint" />
            <Array as="points">
              <mxPoint x="440" y="640" />
            </Array>
          </mxGeometry>
        </mxCell>
        <mxCell id="P5B2Entr7xozEBkngnMB-106" value="updatePostReview()" style="text;html=1;align=center;verticalAlign=middle;resizable=0;points=[];autosize=1;strokeColor=none;fillColor=none;" vertex="1" parent="1">
          <mxGeometry x="445" y="610" width="130" height="30" as="geometry" />
        </mxCell>
        <mxCell id="P5B2Entr7xozEBkngnMB-107" value="" style="endArrow=classic;html=1;rounded=0;entryX=0.081;entryY=-0.02;entryDx=0;entryDy=0;entryPerimeter=0;" edge="1" parent="1" target="P5B2Entr7xozEBkngnMB-118">
          <mxGeometry width="50" height="50" relative="1" as="geometry">
            <mxPoint x="19.5" y="689" as="sourcePoint" />
            <mxPoint x="690" y="690" as="targetPoint" />
            <Array as="points">
              <mxPoint x="410" y="689" />
            </Array>
          </mxGeometry>
        </mxCell>
        <mxCell id="P5B2Entr7xozEBkngnMB-108" value="commentPost()" style="text;html=1;align=center;verticalAlign=middle;resizable=0;points=[];autosize=1;strokeColor=none;fillColor=none;" vertex="1" parent="1">
          <mxGeometry x="35" y="649" width="100" height="30" as="geometry" />
        </mxCell>
        <mxCell id="P5B2Entr7xozEBkngnMB-109" value="" style="endArrow=classic;html=1;rounded=0;entryX=1;entryY=1.003;entryDx=0;entryDy=0;entryPerimeter=0;" edge="1" parent="1" source="P5B2Entr7xozEBkngnMB-3" target="P5B2Entr7xozEBkngnMB-114">
          <mxGeometry width="50" height="50" relative="1" as="geometry">
            <mxPoint x="520" y="590" as="sourcePoint" />
            <mxPoint x="570" y="540" as="targetPoint" />
            <Array as="points">
              <mxPoint x="510" y="740" />
            </Array>
          </mxGeometry>
        </mxCell>
        <mxCell id="P5B2Entr7xozEBkngnMB-110" value="updatePostComments()" style="text;html=1;align=center;verticalAlign=middle;resizable=0;points=[];autosize=1;strokeColor=none;fillColor=none;" vertex="1" parent="1">
          <mxGeometry x="592.19" y="710" width="150" height="30" as="geometry" />
        </mxCell>
        <mxCell id="P5B2Entr7xozEBkngnMB-111" value="" style="html=1;points=[];perimeter=orthogonalPerimeter;fontSize=11;" vertex="1" parent="1">
          <mxGeometry x="15" y="340" width="10" height="410" as="geometry" />
        </mxCell>
        <mxCell id="P5B2Entr7xozEBkngnMB-112" value="" style="html=1;points=[];perimeter=orthogonalPerimeter;fontSize=11;" vertex="1" parent="1">
          <mxGeometry x="140" y="340" width="10" height="140" as="geometry" />
        </mxCell>
        <mxCell id="P5B2Entr7xozEBkngnMB-113" value="" style="endArrow=classic;html=1;rounded=0;entryX=0.4;entryY=0;entryDx=0;entryDy=0;entryPerimeter=0;" edge="1" parent="1" source="P5B2Entr7xozEBkngnMB-115" target="P5B2Entr7xozEBkngnMB-117">
          <mxGeometry width="50" height="50" relative="1" as="geometry">
            <mxPoint x="520" y="580" as="sourcePoint" />
            <mxPoint x="560" y="520" as="targetPoint" />
            <Array as="points">
              <mxPoint x="520" y="520" />
            </Array>
          </mxGeometry>
        </mxCell>
        <mxCell id="P5B2Entr7xozEBkngnMB-114" value="" style="html=1;points=[];perimeter=orthogonalPerimeter;fontSize=11;" vertex="1" parent="1">
          <mxGeometry x="295" y="340" width="10" height="400" as="geometry" />
        </mxCell>
        <mxCell id="P5B2Entr7xozEBkngnMB-98" value="" style="endArrow=classic;html=1;rounded=0;entryX=1.2;entryY=0.607;entryDx=0;entryDy=0;entryPerimeter=0;" edge="1" parent="1" target="P5B2Entr7xozEBkngnMB-112">
          <mxGeometry width="50" height="50" relative="1" as="geometry">
            <mxPoint x="434.5" y="425" as="sourcePoint" />
            <mxPoint x="170" y="425" as="targetPoint" />
            <Array as="points">
              <mxPoint x="350" y="425" />
            </Array>
          </mxGeometry>
        </mxCell>
        <mxCell id="P5B2Entr7xozEBkngnMB-116" value="" style="endArrow=classic;html=1;rounded=0;" edge="1" parent="1" source="P5B2Entr7xozEBkngnMB-92" target="P5B2Entr7xozEBkngnMB-115">
          <mxGeometry width="50" height="50" relative="1" as="geometry">
            <mxPoint x="435" y="520" as="sourcePoint" />
            <mxPoint x="577" y="520" as="targetPoint" />
            <Array as="points" />
          </mxGeometry>
        </mxCell>
        <mxCell id="P5B2Entr7xozEBkngnMB-115" value="" style="html=1;points=[];perimeter=orthogonalPerimeter;fontSize=11;" vertex="1" parent="1">
          <mxGeometry x="430" y="384" width="10" height="136" as="geometry" />
        </mxCell>
        <mxCell id="P5B2Entr7xozEBkngnMB-117" value="" style="html=1;points=[];perimeter=orthogonalPerimeter;fontSize=11;" vertex="1" parent="1">
          <mxGeometry x="572" y="520" width="10" height="120" as="geometry" />
        </mxCell>
        <mxCell id="P5B2Entr7xozEBkngnMB-118" value="" style="html=1;points=[];perimeter=orthogonalPerimeter;fontSize=11;" vertex="1" parent="1">
          <mxGeometry x="752.19" y="690" width="10" height="50" as="geometry" />
        </mxCell>
      </root>
    </mxGraphModel>
  </diagram>
</mxfile>
